<svg width="62" height="62" viewBox="0 0 62 62" fill="none" xmlns="http://www.w3.org/2000/svg">
<line x1="27.0168" y1="14" x2="27.0168" y2="48" stroke="#092D72" stroke-width="1.78947"/>
<line x1="34.7727" y1="14" x2="34.7727" y2="48" stroke="#092D72" stroke-width="1.78947"/>
<path d="M26.7555 32.1239C27.1049 31.7745 27.1049 31.208 26.7555 30.8585L21.0614 25.1645C20.712 24.8151 20.1455 24.8151 19.7961 25.1645C19.4466 25.5139 19.4466 26.0804 19.7961 26.4298L24.8574 31.4912L19.7961 36.5526C19.4466 36.902 19.4466 37.4685 19.7961 37.818C20.1455 38.1674 20.712 38.1674 21.0614 37.818L26.7555 32.1239ZM13 32.3859L26.1228 32.3859L26.1228 30.5965L13 30.5965L13 32.3859Z" fill="#092D72"/>
<path d="M35.6303 30.8585C35.2809 31.208 35.2809 31.7745 35.6303 32.1239L41.3243 37.818C41.6738 38.1674 42.2403 38.1674 42.5897 37.818C42.9391 37.4685 42.9391 36.902 42.5897 36.5526L37.5283 31.4912L42.5897 26.4298C42.9391 26.0804 42.9391 25.5139 42.5897 25.1645C42.2403 24.8151 41.6738 24.8151 41.3243 25.1645L35.6303 30.8585ZM49.3857 30.5965L36.2629 30.5965L36.2629 32.3859L49.3857 32.3859L49.3857 30.5965Z" fill="#092D72"/>
<circle cx="31" cy="31" r="30" stroke="#092D72" stroke-width="2"/>
</svg>
