<svg width="62" height="63" viewBox="0 0 62 63" fill="none" xmlns="http://www.w3.org/2000/svg">
<circle cx="31" cy="31.7244" r="30" stroke="#EE1D23" stroke-width="2"/>
<path d="M35.3931 16.7322L34.4482 38.595H28.4277L27.4829 16.7322H35.3931ZM27.2852 45.4065C27.2852 44.3518 27.666 43.4729 28.4277 42.7698C29.1895 42.052 30.1782 41.6931 31.394 41.6931C32.6099 41.6931 33.5913 42.052 34.3384 42.7698C35.1001 43.4729 35.481 44.3518 35.481 45.4065C35.481 46.4612 35.1001 47.3474 34.3384 48.0652C33.5913 48.7683 32.6099 49.1199 31.394 49.1199C30.1782 49.1199 29.1895 48.7683 28.4277 48.0652C27.666 47.3474 27.2852 46.4612 27.2852 45.4065Z" fill="#FD0000"/>
</svg>
